<svg width="90" height="86" viewBox="0 0 90 86" fill="none" xmlns="http://www.w3.org/2000/svg">
<path d="M57.0543 86C54.8934 86 52.6823 84.963 50.5429 83.9617C48.6239 83.0624 46.6404 82.1327 45.0009 82.1327C43.3614 82.1327 41.3779 83.0624 39.4589 83.9617C37.3195 84.963 35.1084 86 32.9475 86C32.2971 86 31.6735 85.9052 31.093 85.7175C28.2423 84.7931 26.6888 81.9575 25.1854 79.2148C24.2018 77.4179 23.184 75.5602 21.9495 74.6645C20.6898 73.749 18.5845 73.3503 16.5472 72.9641C13.4922 72.3848 10.3315 71.7841 8.59344 69.4007C6.87332 67.0424 7.2711 63.876 7.65454 60.8151C7.91435 58.7464 8.18312 56.608 7.69217 55.1008C7.23347 53.6919 5.86275 52.2437 4.4096 50.7096C2.24153 48.4157 0 46.0467 0 43C0 39.9533 2.24153 37.5843 4.4096 35.294C5.86096 33.7599 7.23347 32.3117 7.69217 30.9028C8.18312 29.3938 7.91435 27.2572 7.65454 25.1885C7.26931 22.1276 6.87332 18.9611 8.59344 16.6028C10.3315 14.2177 13.4922 13.6188 16.5472 13.0395C18.5827 12.6533 20.688 12.2528 21.9477 11.3391C23.1822 10.4434 24.2 8.5857 25.1837 6.78882C26.687 4.04611 28.2405 1.20865 31.0894 0.286071C31.6717 0.0947609 32.2953 0 32.9457 0C35.1066 0 37.3177 1.03701 39.4571 2.03825C41.3761 2.93759 43.3596 3.86732 44.9991 3.86732C46.6386 3.86732 48.6221 2.93759 50.5411 2.03825C52.6805 1.03701 54.8934 0 57.0543 0C57.7047 0 58.3283 0.0947609 58.9088 0.282495C61.7595 1.20507 63.313 4.04254 64.8146 6.78524C65.7982 8.58212 66.816 10.4398 68.0505 11.3356C69.3102 12.251 71.4155 12.6497 73.4528 13.0359C76.5078 13.6152 79.6685 14.2159 81.4066 16.5993C83.1267 18.9575 82.7289 22.124 82.3455 25.1849C82.0856 27.2536 81.8169 29.392 82.3078 30.8992C82.7665 32.3081 84.1372 33.7563 85.5904 35.2904C87.7585 37.5807 90 39.948 90 42.9964C90 46.0431 87.7585 48.4121 85.5904 50.7024C84.139 52.2365 82.7665 53.6847 82.3078 55.0936C81.8169 56.6027 82.0856 58.7393 82.3455 60.8079C82.7289 63.8689 83.1267 67.0353 81.4066 69.3936C79.6685 71.7787 76.5078 72.3777 73.4528 72.957C71.4173 73.3432 69.312 73.7437 68.0523 74.6573C66.8178 75.5531 65.8 77.4107 64.8163 79.2076C63.313 81.9503 61.7595 84.7878 58.9106 85.7104C58.3283 85.9035 57.7047 86 57.0543 86Z" fill="#313D64"/>
<path d="M55.8846 84C53.8438 84 51.7555 83.0112 49.735 82.0565C47.9226 81.199 46.0493 80.3126 44.5008 80.3126C42.9524 80.3126 41.0791 81.199 39.2667 82.0565C37.2462 83.0112 35.1579 84 33.1171 84C32.5028 84 31.9139 83.9096 31.3656 83.7306C28.6732 82.8493 27.2061 80.1455 25.7863 77.5303C24.8572 75.817 23.896 74.0458 22.7301 73.1917C21.5404 72.3188 19.552 71.9387 17.6279 71.5704C14.7426 71.0181 11.7575 70.4453 10.116 68.1728C8.49147 65.9242 8.86715 62.905 9.22929 59.9864C9.47467 58.014 9.7285 55.9751 9.26483 54.538C8.83161 53.1946 7.53704 51.8137 6.16463 50.351C4.117 48.1638 2 45.9049 2 43C2 40.0951 4.117 37.8362 6.16463 35.6524C7.53535 34.1897 8.83161 32.8088 9.26483 31.4654C9.7285 30.0266 9.47467 27.9894 9.22929 26.017C8.86546 23.0984 8.49147 20.0792 10.116 17.8306C11.7575 15.5564 14.7426 14.9853 17.6279 14.433C19.5503 14.0647 21.5387 13.6829 22.7284 12.8117C23.8943 11.9576 24.8555 10.1864 25.7846 8.47306C27.2044 5.85792 28.6715 3.15243 31.3622 2.27277C31.9122 2.09035 32.5011 2 33.1154 2C35.1562 2 37.2445 2.98877 39.265 3.94345C41.0774 4.80096 42.9507 5.68744 44.4992 5.68744C46.0476 5.68744 47.9209 4.80096 49.7333 3.94345C51.7538 2.98877 53.8438 2 55.8846 2C56.4989 2 57.0878 2.09035 57.6361 2.26936C60.3285 3.14902 61.7956 5.85451 63.2137 8.46965C64.1428 10.183 65.104 11.9542 66.2699 12.8083C67.4596 13.6812 69.448 14.0613 71.3721 14.4296C74.2574 14.9819 77.2425 15.5547 78.884 17.8272C80.5085 20.0758 80.1329 23.095 79.7707 26.0136C79.5253 27.986 79.2715 30.0249 79.7352 31.462C80.1684 32.8054 81.463 34.1863 82.8354 35.649C84.883 37.8328 87 40.0899 87 42.9966C87 45.9015 84.883 48.1604 82.8354 50.3442C81.4647 51.8069 80.1684 53.1878 79.7352 54.5311C79.2715 55.97 79.5253 58.0072 79.7707 59.9796C80.1329 62.8982 80.5085 65.9174 78.884 68.166C77.2425 70.4402 74.2574 71.0113 71.3721 71.5636C69.4497 71.9318 67.4613 72.3137 66.2716 73.1849C65.1057 74.039 64.1445 75.8102 63.2154 77.5235C61.7956 80.1387 60.3285 82.8442 57.6378 83.7238C57.0878 83.9079 56.4989 84 55.8846 84Z" fill="#354784"/>
<path d="M30.6875 37H28.2734V30.3906L28.2969 29.3047L28.3359 28.1172C27.9349 28.5182 27.6562 28.7812 27.5 28.9062L26.1875 29.9609L25.0234 28.5078L28.7031 25.5781H30.6875V37ZM41.7812 31.2891C41.7812 33.2839 41.4531 34.7604 40.7969 35.7188C40.1458 36.6771 39.1406 37.1562 37.7812 37.1562C36.4635 37.1562 35.4688 36.6615 34.7969 35.6719C34.1302 34.6823 33.7969 33.2214 33.7969 31.2891C33.7969 29.2734 34.1224 27.7891 34.7734 26.8359C35.4245 25.8776 36.4271 25.3984 37.7812 25.3984C39.099 25.3984 40.0938 25.8984 40.7656 26.8984C41.4427 27.8984 41.7812 29.362 41.7812 31.2891ZM36.1953 31.2891C36.1953 32.6901 36.3151 33.6953 36.5547 34.3047C36.7995 34.9089 37.2083 35.2109 37.7812 35.2109C38.3438 35.2109 38.75 34.9036 39 34.2891C39.25 33.6745 39.375 32.6745 39.375 31.2891C39.375 29.888 39.2474 28.8828 38.9922 28.2734C38.7422 27.6589 38.3385 27.3516 37.7812 27.3516C37.2135 27.3516 36.8073 27.6589 36.5625 28.2734C36.3177 28.8828 36.1953 29.888 36.1953 31.2891ZM50.9219 31.2891C50.9219 33.2839 50.5938 34.7604 49.9375 35.7188C49.2865 36.6771 48.2812 37.1562 46.9219 37.1562C45.6042 37.1562 44.6094 36.6615 43.9375 35.6719C43.2708 34.6823 42.9375 33.2214 42.9375 31.2891C42.9375 29.2734 43.263 27.7891 43.9141 26.8359C44.5651 25.8776 45.5677 25.3984 46.9219 25.3984C48.2396 25.3984 49.2344 25.8984 49.9062 26.8984C50.5833 27.8984 50.9219 29.362 50.9219 31.2891ZM45.3359 31.2891C45.3359 32.6901 45.4557 33.6953 45.6953 34.3047C45.9401 34.9089 46.349 35.2109 46.9219 35.2109C47.4844 35.2109 47.8906 34.9036 48.1406 34.2891C48.3906 33.6745 48.5156 32.6745 48.5156 31.2891C48.5156 29.888 48.388 28.8828 48.1328 28.2734C47.8828 27.6589 47.4792 27.3516 46.9219 27.3516C46.3542 27.3516 45.9479 27.6589 45.7031 28.2734C45.4583 28.8828 45.3359 29.888 45.3359 31.2891ZM53.9609 29C53.9609 29.6615 54.0182 30.1562 54.1328 30.4844C54.2526 30.8073 54.4427 30.9688 54.7031 30.9688C55.2031 30.9688 55.4531 30.3125 55.4531 29C55.4531 27.6979 55.2031 27.0469 54.7031 27.0469C54.4427 27.0469 54.2526 27.2083 54.1328 27.5312C54.0182 27.849 53.9609 28.3385 53.9609 29ZM57.4219 28.9844C57.4219 30.1823 57.1901 31.0833 56.7266 31.6875C56.263 32.2865 55.5833 32.5859 54.6875 32.5859C53.8281 32.5859 53.1641 32.2786 52.6953 31.6641C52.2266 31.0443 51.9922 30.151 51.9922 28.9844C51.9922 26.6042 52.8906 25.4141 54.6875 25.4141C55.5677 25.4141 56.2422 25.724 56.7109 26.3438C57.1849 26.9583 57.4219 27.8385 57.4219 28.9844ZM62.7969 25.5781L56.4609 37H54.5859L60.9219 25.5781H62.7969ZM61.9609 33.5625C61.9609 34.224 62.0182 34.7188 62.1328 35.0469C62.2526 35.3698 62.4427 35.5312 62.7031 35.5312C63.2031 35.5312 63.4531 34.875 63.4531 33.5625C63.4531 32.2604 63.2031 31.6094 62.7031 31.6094C62.4427 31.6094 62.2526 31.7708 62.1328 32.0938C62.0182 32.4115 61.9609 32.901 61.9609 33.5625ZM65.4219 33.5469C65.4219 34.7396 65.1901 35.638 64.7266 36.2422C64.263 36.8411 63.5833 37.1406 62.6875 37.1406C61.8281 37.1406 61.1641 36.8333 60.6953 36.2188C60.2266 35.599 59.9922 34.7083 59.9922 33.5469C59.9922 31.1667 60.8906 29.9766 62.6875 29.9766C63.5677 29.9766 64.2422 30.2865 64.7109 30.9062C65.1849 31.5208 65.4219 32.401 65.4219 33.5469Z" fill="white"/>
<path d="M22.7383 53H21.3594L20.5859 50C20.5573 49.8932 20.5078 49.6732 20.4375 49.3398C20.3698 49.0039 20.3307 48.7786 20.3203 48.6641C20.3047 48.8047 20.2656 49.0312 20.2031 49.3438C20.1406 49.6536 20.0924 49.875 20.0586 50.0078L19.2891 53H17.9141L16.457 47.2891H17.6484L18.3789 50.4062C18.5065 50.9818 18.599 51.4805 18.6562 51.9023C18.6719 51.7539 18.707 51.5247 18.7617 51.2148C18.819 50.9023 18.8724 50.6602 18.9219 50.4883L19.7539 47.2891H20.8984L21.7305 50.4883C21.7669 50.6315 21.8125 50.8503 21.8672 51.1445C21.9219 51.4388 21.9635 51.6914 21.9922 51.9023C22.0182 51.6992 22.0599 51.4466 22.1172 51.1445C22.1745 50.8398 22.2266 50.5938 22.2734 50.4062L23 47.2891H24.1914L22.7383 53ZM26.625 49.3984C26.3724 49.3984 26.1745 49.4792 26.0312 49.6406C25.888 49.7995 25.806 50.026 25.7852 50.3203H27.457C27.4518 50.026 27.375 49.7995 27.2266 49.6406C27.0781 49.4792 26.8776 49.3984 26.625 49.3984ZM26.793 53.0781C26.0898 53.0781 25.5404 52.8841 25.1445 52.4961C24.7487 52.1081 24.5508 51.5586 24.5508 50.8477C24.5508 50.1159 24.7331 49.5508 25.0977 49.1523C25.4648 48.7513 25.9714 48.5508 26.6172 48.5508C27.2344 48.5508 27.7148 48.7266 28.0586 49.0781C28.4023 49.4297 28.5742 49.9154 28.5742 50.5352V51.1133H25.7578C25.7708 51.4518 25.8711 51.7161 26.0586 51.9062C26.2461 52.0964 26.5091 52.1914 26.8477 52.1914C27.1107 52.1914 27.3594 52.1641 27.5938 52.1094C27.8281 52.0547 28.0729 51.9674 28.3281 51.8477V52.7695C28.1198 52.8737 27.8971 52.9505 27.6602 53C27.4232 53.0521 27.1341 53.0781 26.793 53.0781ZM33.8828 49.793H36.1484V52.7539C35.7812 52.8737 35.4349 52.957 35.1094 53.0039C34.7865 53.0534 34.4557 53.0781 34.1172 53.0781C33.2552 53.0781 32.5964 52.8255 32.1406 52.3203C31.6875 51.8125 31.4609 51.0846 31.4609 50.1367C31.4609 49.2148 31.724 48.4961 32.25 47.9805C32.7786 47.4648 33.5104 47.207 34.4453 47.207C35.0312 47.207 35.5964 47.3242 36.1406 47.5586L35.7383 48.5273C35.3216 48.319 34.888 48.2148 34.4375 48.2148C33.9141 48.2148 33.4948 48.3906 33.1797 48.7422C32.8646 49.0938 32.707 49.5664 32.707 50.1602C32.707 50.7799 32.8333 51.2539 33.0859 51.582C33.3411 51.9076 33.7109 52.0703 34.1953 52.0703C34.4479 52.0703 34.7044 52.0443 34.9648 51.9922V50.8008H33.8828V49.793ZM40.5117 53L40.3516 52.4414H40.2891C40.1615 52.6445 39.9805 52.8021 39.7461 52.9141C39.5117 53.0234 39.2448 53.0781 38.9453 53.0781C38.4323 53.0781 38.0456 52.9414 37.7852 52.668C37.5247 52.3919 37.3945 51.9961 37.3945 51.4805V48.6328H38.5859V51.1836C38.5859 51.4987 38.6419 51.7357 38.7539 51.8945C38.8659 52.0508 39.0443 52.1289 39.2891 52.1289C39.6224 52.1289 39.8633 52.0182 40.0117 51.7969C40.1602 51.5729 40.2344 51.2031 40.2344 50.6875V48.6328H41.4258V53H40.5117ZM45.4492 53L45.2188 52.4062H45.1875C44.987 52.6589 44.7799 52.8346 44.5664 52.9336C44.3555 53.0299 44.0794 53.0781 43.7383 53.0781C43.319 53.0781 42.9883 52.9583 42.7461 52.7188C42.5065 52.4792 42.3867 52.138 42.3867 51.6953C42.3867 51.2318 42.5482 50.8906 42.8711 50.6719C43.1966 50.4505 43.6862 50.3281 44.3398 50.3047L45.0977 50.2812V50.0898C45.0977 49.6471 44.8711 49.4258 44.418 49.4258C44.069 49.4258 43.6589 49.5312 43.1875 49.7422L42.793 48.9375C43.2956 48.6745 43.8529 48.543 44.4648 48.543C45.0508 48.543 45.5 48.6706 45.8125 48.9258C46.125 49.181 46.2812 49.569 46.2812 50.0898V53H45.4492ZM45.0977 50.9766L44.6367 50.9922C44.2904 51.0026 44.0326 51.0651 43.8633 51.1797C43.694 51.2943 43.6094 51.4688 43.6094 51.7031C43.6094 52.0391 43.8021 52.207 44.1875 52.207C44.4635 52.207 44.6836 52.1276 44.8477 51.9688C45.0143 51.8099 45.0977 51.599 45.0977 51.3359V50.9766ZM49.9492 48.5508C50.1107 48.5508 50.2448 48.5625 50.3516 48.5859L50.2617 49.7031C50.1654 49.6771 50.0482 49.6641 49.9102 49.6641C49.5299 49.6641 49.2331 49.7617 49.0195 49.957C48.8086 50.1523 48.7031 50.4258 48.7031 50.7773V53H47.5117V48.6328H48.4141L48.5898 49.3672H48.6484C48.7839 49.1224 48.9661 48.9258 49.1953 48.7773C49.4271 48.6263 49.6784 48.5508 49.9492 48.5508ZM53.918 53L53.6875 52.4062H53.6562C53.4557 52.6589 53.2487 52.8346 53.0352 52.9336C52.8242 53.0299 52.5482 53.0781 52.207 53.0781C51.7878 53.0781 51.457 52.9583 51.2148 52.7188C50.9753 52.4792 50.8555 52.138 50.8555 51.6953C50.8555 51.2318 51.0169 50.8906 51.3398 50.6719C51.6654 50.4505 52.1549 50.3281 52.8086 50.3047L53.5664 50.2812V50.0898C53.5664 49.6471 53.3398 49.4258 52.8867 49.4258C52.5378 49.4258 52.1276 49.5312 51.6562 49.7422L51.2617 48.9375C51.7643 48.6745 52.3216 48.543 52.9336 48.543C53.5195 48.543 53.9688 48.6706 54.2812 48.9258C54.5938 49.181 54.75 49.569 54.75 50.0898V53H53.918ZM53.5664 50.9766L53.1055 50.9922C52.7591 51.0026 52.5013 51.0651 52.332 51.1797C52.1628 51.2943 52.0781 51.4688 52.0781 51.7031C52.0781 52.0391 52.2708 52.207 52.6562 52.207C52.9323 52.207 53.1523 52.1276 53.3164 51.9688C53.4831 51.8099 53.5664 51.599 53.5664 51.3359V50.9766ZM60.0117 53H58.8203V50.4492C58.8203 50.1341 58.7643 49.8984 58.6523 49.7422C58.5404 49.5833 58.362 49.5039 58.1172 49.5039C57.7839 49.5039 57.543 49.6159 57.3945 49.8398C57.2461 50.0612 57.1719 50.4297 57.1719 50.9453V53H55.9805V48.6328H56.8906L57.0508 49.1914H57.1172C57.25 48.9805 57.4323 48.8216 57.6641 48.7148C57.8984 48.6055 58.1641 48.5508 58.4609 48.5508C58.9688 48.5508 59.3542 48.6888 59.6172 48.9648C59.8802 49.2383 60.0117 49.6341 60.0117 50.1523V53ZM63.0781 52.1289C63.2865 52.1289 63.5365 52.0833 63.8281 51.9922V52.8789C63.5312 53.0117 63.1667 53.0781 62.7344 53.0781C62.2578 53.0781 61.9102 52.9583 61.6914 52.7188C61.4753 52.4766 61.3672 52.1146 61.3672 51.6328V49.5273H60.7969V49.0234L61.4531 48.625L61.7969 47.7031H62.5586V48.6328H63.7812V49.5273H62.5586V51.6328C62.5586 51.8021 62.6055 51.9271 62.6992 52.0078C62.7956 52.0885 62.9219 52.1289 63.0781 52.1289ZM66.5234 49.3984C66.2708 49.3984 66.0729 49.4792 65.9297 49.6406C65.7865 49.7995 65.7044 50.026 65.6836 50.3203H67.3555C67.3503 50.026 67.2734 49.7995 67.125 49.6406C66.9766 49.4792 66.776 49.3984 66.5234 49.3984ZM66.6914 53.0781C65.9883 53.0781 65.4388 52.8841 65.043 52.4961C64.6471 52.1081 64.4492 51.5586 64.4492 50.8477C64.4492 50.1159 64.6315 49.5508 64.9961 49.1523C65.3633 48.7513 65.8698 48.5508 66.5156 48.5508C67.1328 48.5508 67.6133 48.7266 67.957 49.0781C68.3008 49.4297 68.4727 49.9154 68.4727 50.5352V51.1133H65.6562C65.6693 51.4518 65.7695 51.7161 65.957 51.9062C66.1445 52.0964 66.4076 52.1914 66.7461 52.1914C67.0091 52.1914 67.2578 52.1641 67.4922 52.1094C67.7266 52.0547 67.9714 51.9674 68.2266 51.8477V52.7695C68.0182 52.8737 67.7956 52.9505 67.5586 53C67.3216 53.0521 67.0326 53.0781 66.6914 53.0781ZM71.25 49.3984C70.9974 49.3984 70.7995 49.4792 70.6562 49.6406C70.513 49.7995 70.431 50.026 70.4102 50.3203H72.082C72.0768 50.026 72 49.7995 71.8516 49.6406C71.7031 49.4792 71.5026 49.3984 71.25 49.3984ZM71.418 53.0781C70.7148 53.0781 70.1654 52.8841 69.7695 52.4961C69.3737 52.1081 69.1758 51.5586 69.1758 50.8477C69.1758 50.1159 69.3581 49.5508 69.7227 49.1523C70.0898 48.7513 70.5964 48.5508 71.2422 48.5508C71.8594 48.5508 72.3398 48.7266 72.6836 49.0781C73.0273 49.4297 73.1992 49.9154 73.1992 50.5352V51.1133H70.3828C70.3958 51.4518 70.4961 51.7161 70.6836 51.9062C70.8711 52.0964 71.1341 52.1914 71.4727 52.1914C71.7357 52.1914 71.9844 52.1641 72.2188 52.1094C72.4531 52.0547 72.6979 51.9674 72.9531 51.8477V52.7695C72.7448 52.8737 72.5221 52.9505 72.2852 53C72.0482 53.0521 71.7591 53.0781 71.418 53.0781ZM31.0859 61.1367C31.0859 62.082 30.8516 62.8086 30.3828 63.3164C29.9141 63.8242 29.2422 64.0781 28.3672 64.0781C27.4922 64.0781 26.8203 63.8242 26.3516 63.3164C25.8828 62.8086 25.6484 62.0794 25.6484 61.1289C25.6484 60.1784 25.8828 59.4531 26.3516 58.9531C26.8229 58.4505 27.4974 58.1992 28.375 58.1992C29.2526 58.1992 29.9232 58.4518 30.3867 58.957C30.8529 59.4622 31.0859 60.1888 31.0859 61.1367ZM26.918 61.1367C26.918 61.7747 27.0391 62.2552 27.2812 62.5781C27.5234 62.901 27.8854 63.0625 28.3672 63.0625C29.3333 63.0625 29.8164 62.4206 29.8164 61.1367C29.8164 59.8503 29.3359 59.207 28.375 59.207C27.8932 59.207 27.5299 59.3698 27.2852 59.6953C27.0404 60.0182 26.918 60.4987 26.918 61.1367ZM35.2695 64L35.1094 63.4414H35.0469C34.9193 63.6445 34.7383 63.8021 34.5039 63.9141C34.2695 64.0234 34.0026 64.0781 33.7031 64.0781C33.1901 64.0781 32.8034 63.9414 32.543 63.668C32.2826 63.3919 32.1523 62.9961 32.1523 62.4805V59.6328H33.3438V62.1836C33.3438 62.4987 33.3997 62.7357 33.5117 62.8945C33.6237 63.0508 33.8021 63.1289 34.0469 63.1289C34.3802 63.1289 34.6211 63.0182 34.7695 62.7969C34.918 62.5729 34.9922 62.2031 34.9922 61.6875V59.6328H36.1836V64H35.2695ZM39.8711 59.5508C40.0326 59.5508 40.1667 59.5625 40.2734 59.5859L40.1836 60.7031C40.0872 60.6771 39.9701 60.6641 39.832 60.6641C39.4518 60.6641 39.1549 60.7617 38.9414 60.957C38.7305 61.1523 38.625 61.4258 38.625 61.7773V64H37.4336V59.6328H38.3359L38.5117 60.3672H38.5703C38.7057 60.1224 38.888 59.9258 39.1172 59.7773C39.349 59.6263 39.6003 59.5508 39.8711 59.5508ZM44.4492 60.8242H44.8398C45.2227 60.8242 45.5052 60.7604 45.6875 60.6328C45.8698 60.5052 45.9609 60.3047 45.9609 60.0312C45.9609 59.7604 45.8672 59.5677 45.6797 59.4531C45.4948 59.3385 45.207 59.2812 44.8164 59.2812H44.4492V60.8242ZM44.4492 61.8086V64H43.2383V58.2891H44.9023C45.6784 58.2891 46.2526 58.431 46.625 58.7148C46.9974 58.9961 47.1836 59.4245 47.1836 60C47.1836 60.3359 47.0911 60.6354 46.9062 60.8984C46.7214 61.1589 46.4596 61.3633 46.1211 61.5117C46.9805 62.7956 47.5404 63.625 47.8008 64H46.457L45.0938 61.8086H44.4492ZM51.1992 64L50.9688 63.4062H50.9375C50.737 63.6589 50.5299 63.8346 50.3164 63.9336C50.1055 64.0299 49.8294 64.0781 49.4883 64.0781C49.069 64.0781 48.7383 63.9583 48.4961 63.7188C48.2565 63.4792 48.1367 63.138 48.1367 62.6953C48.1367 62.2318 48.2982 61.8906 48.6211 61.6719C48.9466 61.4505 49.4362 61.3281 50.0898 61.3047L50.8477 61.2812V61.0898C50.8477 60.6471 50.6211 60.4258 50.168 60.4258C49.819 60.4258 49.4089 60.5312 48.9375 60.7422L48.543 59.9375C49.0456 59.6745 49.6029 59.543 50.2148 59.543C50.8008 59.543 51.25 59.6706 51.5625 59.9258C51.875 60.181 52.0312 60.569 52.0312 61.0898V64H51.1992ZM50.8477 61.9766L50.3867 61.9922C50.0404 62.0026 49.7826 62.0651 49.6133 62.1797C49.444 62.2943 49.3594 62.4688 49.3594 62.7031C49.3594 63.0391 49.5521 63.207 49.9375 63.207C50.2135 63.207 50.4336 63.1276 50.5977 62.9688C50.7643 62.8099 50.8477 62.599 50.8477 62.3359V61.9766ZM55.1016 63.1289C55.3099 63.1289 55.5599 63.0833 55.8516 62.9922V63.8789C55.5547 64.0117 55.1901 64.0781 54.7578 64.0781C54.2812 64.0781 53.9336 63.9583 53.7148 63.7188C53.4987 63.4766 53.3906 63.1146 53.3906 62.6328V60.5273H52.8203V60.0234L53.4766 59.625L53.8203 58.7031H54.582V59.6328H55.8047V60.5273H54.582V62.6328C54.582 62.8021 54.6289 62.9271 54.7227 63.0078C54.819 63.0885 54.9453 63.1289 55.1016 63.1289ZM58.5469 60.3984C58.2943 60.3984 58.0964 60.4792 57.9531 60.6406C57.8099 60.7995 57.7279 61.026 57.707 61.3203H59.3789C59.3737 61.026 59.2969 60.7995 59.1484 60.6406C59 60.4792 58.7995 60.3984 58.5469 60.3984ZM58.7148 64.0781C58.0117 64.0781 57.4622 63.8841 57.0664 63.4961C56.6706 63.1081 56.4727 62.5586 56.4727 61.8477C56.4727 61.1159 56.6549 60.5508 57.0195 60.1523C57.3867 59.7513 57.8932 59.5508 58.5391 59.5508C59.1562 59.5508 59.6367 59.7266 59.9805 60.0781C60.3242 60.4297 60.4961 60.9154 60.4961 61.5352V62.1133H57.6797C57.6927 62.4518 57.793 62.7161 57.9805 62.9062C58.168 63.0964 58.431 63.1914 58.7695 63.1914C59.0326 63.1914 59.2812 63.1641 59.5156 63.1094C59.75 63.0547 59.9948 62.9674 60.25 62.8477V63.7695C60.0417 63.8737 59.819 63.9505 59.582 64C59.3451 64.0521 59.056 64.0781 58.7148 64.0781ZM64.5117 62.7031C64.5117 63.151 64.3555 63.4922 64.043 63.7266C63.7331 63.9609 63.2682 64.0781 62.6484 64.0781C62.3307 64.0781 62.0599 64.056 61.8359 64.0117C61.612 63.9701 61.4023 63.9076 61.207 63.8242V62.8398C61.4284 62.944 61.6771 63.0312 61.9531 63.1016C62.2318 63.1719 62.4766 63.207 62.6875 63.207C63.1198 63.207 63.3359 63.082 63.3359 62.832C63.3359 62.7383 63.3073 62.6628 63.25 62.6055C63.1927 62.5456 63.0938 62.4792 62.9531 62.4062C62.8125 62.3307 62.625 62.2435 62.3906 62.1445C62.0547 62.0039 61.8073 61.8737 61.6484 61.7539C61.4922 61.6341 61.3776 61.4974 61.3047 61.3438C61.2344 61.1875 61.1992 60.9961 61.1992 60.7695C61.1992 60.3815 61.349 60.082 61.6484 59.8711C61.9505 59.6576 62.3776 59.5508 62.9297 59.5508C63.4557 59.5508 63.9674 59.6654 64.4648 59.8945L64.1055 60.7539C63.8867 60.6602 63.6823 60.5833 63.4922 60.5234C63.3021 60.4635 63.1081 60.4336 62.9102 60.4336C62.5586 60.4336 62.3828 60.5286 62.3828 60.7188C62.3828 60.8255 62.4388 60.918 62.5508 60.9961C62.6654 61.0742 62.9141 61.1901 63.2969 61.3438C63.638 61.4818 63.888 61.6107 64.0469 61.7305C64.2057 61.8503 64.3229 61.9883 64.3984 62.1445C64.474 62.3008 64.5117 62.487 64.5117 62.7031Z" fill="white"/>
</svg>
