<svg width="10" height="9" viewBox="0 0 10 9" fill="none" xmlns="http://www.w3.org/2000/svg">
<path d="M9.26601 3.39093C9.23955 3.31299 9.19084 3.24451 9.12591 3.19394C9.06097 3.14337 8.98265 3.11292 8.9006 3.10635L6.50062 2.91565L5.46208 0.616703C5.429 0.542658 5.37521 0.479768 5.30718 0.435623C5.23915 0.391478 5.1598 0.367964 5.07871 0.36792C4.99761 0.367875 4.91823 0.391302 4.85016 0.435373C4.78208 0.479443 4.72822 0.542274 4.69506 0.616282L3.65651 2.91565L1.25653 3.10635C1.1759 3.11274 1.09881 3.14222 1.03449 3.19127C0.970175 3.24033 0.921351 3.30687 0.893861 3.38294C0.866372 3.45902 0.861381 3.5414 0.879486 3.62024C0.897591 3.69907 0.938025 3.77102 0.995951 3.82748L2.76952 5.55643L2.14227 8.27256C2.12322 8.35477 2.12932 8.44082 2.15979 8.51952C2.19025 8.59822 2.24366 8.66595 2.3131 8.71392C2.38253 8.76189 2.46478 8.78789 2.54917 8.78853C2.63356 8.78917 2.7162 8.76443 2.78636 8.71753L5.07857 7.18939L7.37078 8.71753C7.44249 8.76514 7.52705 8.78965 7.61311 8.78776C7.69916 8.78587 7.78257 8.75768 7.85212 8.70697C7.92167 8.65627 7.97403 8.58548 8.00214 8.50412C8.03026 8.42277 8.03279 8.33476 8.0094 8.25193L7.23943 5.55769L9.14898 3.83927C9.27401 3.72645 9.31989 3.55048 9.26601 3.39093Z" fill="#F56C03"/>
</svg>
