<svg width="10" height="10" viewBox="0 0 10 10" fill="none" xmlns="http://www.w3.org/2000/svg">
<path d="M9.97351 3.58949C9.94209 3.49692 9.88424 3.41559 9.80711 3.35552C9.72999 3.29546 9.63696 3.25929 9.53951 3.25149L6.68901 3.02499L5.45551 0.294492C5.41623 0.206548 5.35233 0.131853 5.27154 0.0794208C5.19074 0.0269888 5.09649 -0.000938882 5.00018 -0.000991746C4.90386 -0.00104461 4.80958 0.0267796 4.72873 0.0791229C4.64787 0.131466 4.58389 0.206091 4.54451 0.293992L3.31101 3.02499L0.460513 3.25149C0.364741 3.25908 0.273182 3.2941 0.196791 3.35236C0.120399 3.41062 0.0624096 3.48965 0.0297597 3.58001C-0.00289019 3.67036 -0.00881797 3.76821 0.0126856 3.86184C0.0341892 3.95548 0.0822135 4.04094 0.151013 4.10799L2.25751 6.16149L1.51251 9.38749C1.48989 9.48514 1.49714 9.58734 1.53332 9.68081C1.5695 9.77429 1.63295 9.85474 1.71541 9.91171C1.79788 9.96868 1.89557 9.99956 1.99581 10.0003C2.09604 10.0011 2.19419 9.9717 2.27751 9.91599L5.00001 8.10099L7.72251 9.91599C7.80768 9.97254 7.90812 10.0016 8.01033 9.99941C8.11254 9.99717 8.2116 9.96368 8.29421 9.90345C8.37682 9.84323 8.439 9.75915 8.4724 9.66253C8.50579 9.56591 8.5088 9.46137 8.48101 9.36299L7.56651 6.16299L9.83451 4.12199C9.98301 3.98799 10.0375 3.77899 9.97351 3.58949Z" fill="#313D64"/>
</svg>
