<svg width="10" height="10" viewBox="0 0 10 10" fill="none" xmlns="http://www.w3.org/2000/svg">
<path d="M1.7573 8.52458C1.74242 8.5883 1.74215 8.65456 1.75652 8.71839C1.77088 8.78222 1.79951 8.84198 1.84026 8.89317C1.88101 8.94436 1.93281 8.98567 1.9918 9.014C2.05078 9.04232 2.11541 9.05693 2.18084 9.05672C2.26664 9.05674 2.35054 9.03134 2.42193 8.98374L4.78722 7.40688L7.15251 8.98374C7.22651 9.03287 7.31377 9.05816 7.40257 9.05621C7.49136 9.05426 7.57743 9.02517 7.6492 8.97285C7.72097 8.92052 7.77499 8.84748 7.80401 8.76353C7.83302 8.67959 7.83563 8.58877 7.81149 8.5033L7.01698 5.72315L8.98741 3.94994C9.05051 3.89312 9.09558 3.81904 9.11704 3.73688C9.13849 3.65471 9.13539 3.56806 9.10812 3.48763C9.08085 3.40721 9.03061 3.33654 8.9636 3.28437C8.8966 3.2322 8.81577 3.20081 8.73111 3.19409L6.25461 2.99688L5.18296 0.624635C5.14883 0.548229 5.09331 0.483335 5.02312 0.437782C4.95292 0.392229 4.87104 0.367966 4.78736 0.36792C4.70368 0.367874 4.62177 0.392048 4.55153 0.437523C4.48128 0.482999 4.4257 0.547833 4.39148 0.6242L3.31983 2.99688L0.843329 3.19366C0.760122 3.20025 0.680576 3.23067 0.614208 3.28129C0.547839 3.33191 0.497458 3.40057 0.469092 3.47907C0.440726 3.55757 0.435576 3.64258 0.454258 3.72393C0.472941 3.80528 0.514664 3.87952 0.574437 3.93778L2.40499 5.72185L1.7573 8.52458ZM4.78722 1.85832L5.67426 3.82223L5.92968 3.84265H5.93012L7.65554 3.97948L6.23463 5.25835L6.2342 5.25922L6.03307 5.43993L6.10735 5.69926V5.70057L6.65165 7.6054L4.78722 6.36259V1.85832Z" fill="#F56C03"/>
</svg>
