<svg width="80" height="19" viewBox="0 0 80 19" fill="none" xmlns="http://www.w3.org/2000/svg">
<path d="M25.5261 1.34696C28.1317 1.34696 29.6406 2.84174 29.6406 4.85351C29.6406 6.2004 28.784 7.30651 27.7033 7.65729C28.896 7.93474 30.0504 9.02251 30.0504 10.7202C30.0504 12.8395 28.4443 14.3978 25.9913 14.4284H20.5907V1.34696H25.5261ZM25.3021 8.98585H23.4584V12.0487H25.3021C26.4381 12.0487 27.1261 11.4584 27.1261 10.5173C27.1261 9.62262 26.4701 8.99807 25.3366 8.98585H25.3021ZM25.0215 3.76451H23.4584V6.58785H25.0584C26.0824 6.58785 26.7532 6.05251 26.7532 5.1664C26.7532 4.32674 26.187 3.77551 25.0547 3.76451H25.0215ZM32.4393 4.11407C33.3686 4.11407 34.1132 3.37585 34.1132 2.4714C34.1132 1.56696 33.3686 0.828735 32.4393 0.828735C31.5483 0.828735 30.8049 1.56696 30.8049 2.4714C30.8049 3.37585 31.5483 4.11407 32.4393 4.11407ZM33.8793 14.4284V5.26662H31.0363V14.4284H33.8793ZM38.1501 14.4284V10.4183C38.1501 8.58862 39.1704 7.92374 40.3015 7.92374C40.5797 7.92374 40.8763 7.94207 41.1913 8.0154V5.2434C41.0067 5.1884 40.7286 5.15051 40.4492 5.15051C39.7083 5.15051 38.539 5.44629 38.0566 6.48274V5.2434H35.3304V14.4284H38.1489H38.1501ZM51.099 1.05974V12.9031L51.1003 13.0082V13.0766L51.1027 13.1768L51.1052 13.2746L51.1077 13.3357L51.1113 13.458L51.1163 13.5753L51.1212 13.6853L51.1286 13.8136L51.1372 13.9554L51.1483 14.1008L51.1569 14.2231L51.1729 14.3991H48.4652L48.459 14.3551L48.4467 14.2658L48.4381 14.2023L48.4307 14.1314L48.4221 14.0532L48.4184 14.0128L48.411 13.9273L48.4074 13.8833L48.4024 13.8161L48.4 13.7696L48.3975 13.7232L48.3938 13.6535L48.3926 13.5838V13.5142C47.9655 14.1412 47.0387 14.602 45.9261 14.602C43.3304 14.602 41.3661 12.6122 41.3661 9.79251C41.3661 7.06696 43.2197 5.02096 45.8338 5.02096C47.0473 5.02096 47.7329 5.37051 48.0861 5.69074L48.112 5.71518C48.139 5.73962 48.1624 5.76529 48.1858 5.78851L48.2067 5.81296L48.2264 5.8374L48.2461 5.86062L48.2646 5.88385L48.2806 5.90585L48.2966 5.92785L48.3113 5.94985L48.3175 5.96085V1.05974H51.099ZM46.2769 7.54485C45.184 7.54485 44.2006 8.28185 44.2006 9.81085C44.2006 11.3215 45.184 12.0964 46.2769 12.0964C47.371 12.0964 48.3532 11.3215 48.3532 9.81085C48.3532 8.28307 47.371 7.54485 46.2769 7.54485ZM56.4726 4.97818C59.3317 4.97818 61.0953 6.73329 61.0953 9.68985C61.0953 10.0785 61.0584 10.5038 61.04 10.5588H54.6166C54.672 11.5941 55.6197 12.3335 56.715 12.3335C57.7366 12.3335 58.3114 11.852 58.571 11.1321L60.9292 11.797C60.4837 13.3858 59.0166 14.7168 56.6769 14.7168C54.1341 14.7168 51.8695 12.9055 51.8695 9.8194C51.8695 6.86285 54.0787 4.97818 56.4726 4.97818ZM56.5095 7.19529C55.3218 7.19529 54.7286 8.06307 54.672 8.74751H58.3667C58.3298 8.04596 57.8474 7.19529 56.5107 7.19529H56.5095Z" fill="white"/>
<path d="M65.2739 17.9435L70.9613 5.26659H67.9681L65.9238 10.1677L63.6752 5.26659H60.5158L64.4001 13.1903L62.3004 17.9435H65.2739ZM74.9268 4.97815C77.7859 4.97815 79.5496 6.73326 79.5496 9.68982C79.5496 10.0785 79.5127 10.5038 79.4942 10.5588H73.0696C73.1262 11.594 74.0727 12.3335 75.1681 12.3335C76.1896 12.3335 76.7644 11.8519 77.0241 11.132L79.3822 11.7969C78.9367 13.3858 77.4696 14.7168 75.1312 14.7168C72.5872 14.7168 70.3225 12.9055 70.3225 9.81937C70.3225 6.86282 72.5318 4.97815 74.9256 4.97815H74.9268ZM74.9638 7.19526C73.7761 7.19526 73.1816 8.06304 73.1262 8.74748H76.8198C76.7829 8.04593 76.3004 7.19526 74.9638 7.19526Z" fill="white"/>
<path fill-rule="evenodd" clip-rule="evenodd" d="M10.3494 8.56316L10.3469 8.56193L10.2386 8.51916L6.54875 7.07082C6.4466 7.02682 6.33583 7.00238 6.21767 7.00238C5.76721 7.00238 5.4029 7.36293 5.4029 7.8066C5.4029 7.98993 5.46567 8.15982 5.57029 8.29549L5.57644 8.30282C5.5949 8.32605 5.6146 8.34805 5.63675 8.37005L8.2829 11.3718C8.61152 11.7385 9.09275 11.9707 9.62936 11.9707C10.6238 11.9707 11.43 11.175 11.43 10.1936C11.43 9.46393 10.9857 8.83693 10.3494 8.56316ZM9.11244 2.56082C9.94813 2.30171 10.8478 2.72827 11.1223 3.51416C11.398 4.2976 10.9438 5.14338 10.1081 5.40249C9.27367 5.66038 8.37275 5.23382 8.09829 4.44916C7.82383 3.66449 8.27798 2.81871 9.11244 2.56082ZM14.918 3.49827C14.7961 3.32716 14.6201 3.2196 14.4281 3.17071V3.16827L13.7069 2.98127C13.6971 2.94705 13.6897 2.91282 13.6786 2.87982C12.9315 0.68227 10.4835 -0.511841 8.21152 0.211714C7.0349 0.585714 6.14014 1.40338 5.65152 2.40805L4.34937 4.46382L1.26014 3.2526L1.25891 3.25505C1.06444 3.1756 0.842905 3.15849 0.62629 3.22694C0.148751 3.37971 -0.10971 3.87716 0.0478283 4.33916C0.0699822 4.40516 0.101982 4.46749 0.138905 4.52494L0.133982 4.53105L3.35737 8.76971L3.36352 8.78193L3.37337 8.79293L5.67983 12.0049C6.6866 13.7918 8.86752 14.8686 10.9709 14.1988C13.2417 13.4753 14.4774 11.1078 13.7291 8.91027C13.4964 8.22582 13.0989 7.64038 12.5931 7.17838C13.2306 6.57338 13.6638 5.79238 13.8251 4.94538L14.5217 4.74616V4.7376C14.5832 4.71438 14.6435 4.68749 14.7001 4.64838C15.0891 4.38927 15.1863 3.87471 14.918 3.49827Z" fill="white"/>
</svg>
