<svg width="70" height="24" viewBox="0 0 70 24" fill="none" xmlns="http://www.w3.org/2000/svg">
<g clip-path="url(#clip0)">
<path d="M29.7886 12.3404C29.7886 15.6298 27.2176 18.0537 24.0625 18.0537C20.9074 18.0537 18.3364 15.6298 18.3364 12.3404C18.3364 9.02784 20.9074 6.62714 24.0625 6.62714C27.2176 6.62714 29.7886 9.02784 29.7886 12.3404ZM27.282 12.3404C27.282 10.2849 25.7919 8.87844 24.0625 8.87844C22.3331 8.87844 20.843 10.2849 20.843 12.3404C20.843 14.3753 22.3331 15.8024 24.0625 15.8024C25.7919 15.8024 27.282 14.3727 27.282 12.3404Z" fill="white"/>
<path d="M42.1415 12.3404C42.1415 15.6298 39.5706 18.0537 36.4154 18.0537C33.2603 18.0537 30.6893 15.6298 30.6893 12.3404C30.6893 9.03041 33.2603 6.62714 36.4154 6.62714C39.5706 6.62714 42.1415 9.02784 42.1415 12.3404ZM39.6349 12.3404C39.6349 10.2849 38.1448 8.87844 36.4154 8.87844C34.686 8.87844 33.196 10.2849 33.196 12.3404C33.196 14.3753 34.686 15.8024 36.4154 15.8024C38.1448 15.8024 39.6349 14.3727 39.6349 12.3404Z" fill="white"/>
<path d="M53.9798 6.9723V17.2294C53.9798 21.4486 51.4937 23.1719 48.5548 23.1719C45.7882 23.1719 44.1232 21.3198 43.4952 19.8052L45.6776 18.896C46.0662 19.8258 47.0184 20.9232 48.5522 20.9232C50.4335 20.9232 51.5993 19.7614 51.5993 17.5745V16.7528H51.5118C50.9507 17.4458 49.8698 18.0511 48.5059 18.0511C45.6518 18.0511 43.0371 15.5628 43.0371 12.361C43.0371 9.13602 45.6518 6.62714 48.5059 6.62714C49.8673 6.62714 50.9482 7.23246 51.5118 7.90476H51.5993V6.97488H53.9798V6.9723ZM51.7768 12.361C51.7768 10.3493 50.436 8.87844 48.7298 8.87844C47.0004 8.87844 45.5515 10.3493 45.5515 12.361C45.5515 14.3521 47.0004 15.8024 48.7298 15.8024C50.436 15.8024 51.7768 14.3521 51.7768 12.361Z" fill="white"/>
<path d="M57.9044 0.960266V17.7034H55.4595V0.960266H57.9044Z" fill="white"/>
<path d="M67.4316 14.2208L69.3772 15.519C68.7493 16.4489 67.2361 18.0511 64.6213 18.0511C61.3787 18.0511 58.957 15.5422 58.957 12.3378C58.957 8.94027 61.3993 6.62457 64.3408 6.62457C67.303 6.62457 68.7519 8.98406 69.2254 10.2591L69.4853 10.9082L61.8548 14.0714C62.439 15.2176 63.3474 15.8024 64.6213 15.8024C65.8978 15.8024 66.7831 15.1739 67.4316 14.2208ZM61.443 12.1652L66.5438 10.0453C66.2633 9.3318 65.4191 8.83466 64.4258 8.83466C63.1519 8.83466 61.3787 9.96031 61.443 12.1652Z" fill="white"/>
<path d="M9.08197 10.8542V8.43028H17.2426C17.3224 8.85272 17.3636 9.35244 17.3636 9.89337C17.3636 11.7119 16.8669 13.9607 15.2662 15.5628C13.7092 17.1856 11.7198 18.0511 9.08455 18.0511C4.19999 18.0511 0.0926361 14.0688 0.0926361 9.17986C0.0926361 4.29087 4.19999 0.308594 9.08455 0.308594C11.7868 0.308594 13.7118 1.36985 15.1581 2.75309L13.4493 4.46346C12.4121 3.48978 11.007 2.73248 9.08197 2.73248C5.51506 2.73248 2.72536 5.60971 2.72536 9.17986C2.72536 12.75 5.51506 15.6272 9.08197 15.6272C11.3956 15.6272 12.7132 14.6974 13.5573 13.8525C14.2419 13.1673 14.6923 12.1885 14.8698 10.8516L9.08197 10.8542Z" fill="white"/>
</g>
<defs>
<clipPath id="clip0">
<rect width="70" height="23.6979" fill="white" transform="translate(0 0.1875)"/>
</clipPath>
</defs>
</svg>
