<svg width="120" height="23" viewBox="0 0 120 23" fill="none" xmlns="http://www.w3.org/2000/svg">
<g clip-path="url(#clip0)">
<path d="M66.7589 0.143433L66.1812 3.81857H68.66L65.8241 22.3372H70.5821L73.418 3.81857H75.8863L76.464 0.143433H66.7589Z" fill="black"/>
<path d="M77.0626 0.142944L73.6595 22.3367H78.407L79.762 13.5368H80.0981C80.8018 13.5368 81.1169 13.7001 81.1169 14.2208C81.1169 14.3841 81.1169 14.5474 81.0854 14.7108L79.8985 22.3367H84.6565L85.7593 15.1293C85.8434 14.6393 85.8749 14.1697 85.8749 13.7818C85.8749 12.5465 85.3917 11.9034 84.1418 11.5052C86.4 10.7702 86.6836 9.4635 87.0302 7.02362L87.3663 4.73686C87.5029 3.85892 87.5974 3.17493 87.5974 2.62366C87.5974 0.428788 86.0324 0.142944 82.5663 0.142944H77.0626ZM81.2954 3.73641H81.6946C82.3983 3.73641 82.6819 3.81808 82.6819 4.36935C82.6819 4.39998 82.6504 4.69603 82.5663 5.21667L82.1462 7.97303C81.9781 9.06536 81.9256 9.45329 80.9068 9.45329C80.7703 9.45329 80.6232 9.42266 80.4237 9.42266L81.2954 3.73641Z" fill="black"/>
<path d="M88.9944 0.142899L85.5913 22.3366H93.2062L93.7419 18.733H90.8955L91.9353 11.9442H94.7712L95.3384 8.3405H92.471L93.1747 3.71595H96.0421L96.6093 0.13269H88.9944V0.142899Z" fill="black"/>
<path d="M97.4285 0.142944L94.0254 22.3367H98.1322L99.7917 11.4644H99.9913L100.611 22.3367H105.012L108.425 0.142944H104.35L102.575 11.5154H102.376L101.871 0.142944H97.4285Z" fill="black"/>
<path d="M109.465 0.142944L106.062 22.3367H111.576C114.013 22.3367 115.536 22.2856 116.502 21.3464C117.353 20.5502 117.521 19.3966 117.773 17.7428L119.779 4.70624C119.947 3.69558 120.01 2.98097 120.01 2.58283C120.01 0.347119 118.361 0.142944 114.979 0.142944H109.465ZM113.666 3.70578C113.835 3.70578 113.982 3.67516 114.118 3.67516C114.79 3.67516 115.053 3.8385 115.053 4.35914C115.053 4.41019 115.021 4.6654 114.937 5.1248L113.047 17.4263C112.91 18.437 112.847 18.7943 111.849 18.7943C111.713 18.7943 111.566 18.7636 111.366 18.7636L113.666 3.70578Z" fill="black"/>
<path d="M3.40306 0.142944L0 22.3367H4.30635L6.28096 9.54517H6.44902L6.19694 22.3367H8.86477L12.5304 9.54517H12.73L10.7554 22.3367H15.0302L18.4438 0.142944H12.6249L9.2849 11.3827H9.08534L9.22188 0.142944H3.40306Z" fill="#FF0303"/>
<path d="M29.9658 4.59392C30.1024 3.66493 30.1864 2.95032 30.1864 2.39905C30.1864 0.132713 28.5479 0 25.1763 0C22.7081 0 21.1326 0.0306261 20.1663 1.01066C19.3785 1.80694 19.2105 2.97074 18.9689 4.59392L16.9628 17.855C16.7947 18.8963 16.7422 19.7028 16.7422 20.2949C16.7422 22.255 18.4752 22.5 21.7523 22.5C24.2205 22.5 25.7435 22.4183 26.6783 21.5098C27.5501 20.6624 27.6971 19.4782 27.9492 17.8448L29.9658 4.59392ZM25.1868 4.73684L23.1807 17.7223C23.0652 18.4574 22.9286 18.8453 22.2774 18.8453C21.8258 18.8453 21.6577 18.6513 21.6577 18.1919C21.6577 18.0592 21.6577 17.9163 21.6892 17.7223L23.6954 4.73684C23.8109 4.05286 23.9264 3.64451 24.5461 3.64451C25.0503 3.64451 25.2498 3.83848 25.2498 4.29787C25.2393 4.3387 25.2393 4.46121 25.1868 4.73684Z" fill="#FF0303"/>
<path d="M31.0687 0.142944L30.5015 3.81808H32.9698L30.1339 22.3367H34.8709L37.7173 3.81808H40.1856L40.7527 0.142944H31.0687Z" fill="#FF0303"/>
<path d="M51.6342 4.59392C51.7707 3.66493 51.8547 2.95032 51.8547 2.39905C51.8442 0.132713 50.2162 0 46.8342 0C44.3659 0 42.7904 0.0306261 41.8241 1.01066C41.0364 1.80694 40.8683 2.97074 40.6267 4.59392L38.6101 17.855C38.442 18.8963 38.379 19.7028 38.379 20.2949C38.379 22.255 40.1121 22.5 43.3891 22.5C45.8574 22.5 47.3803 22.4183 48.3151 21.5098C49.1869 20.6624 49.3339 19.4782 49.586 17.8448L51.6342 4.59392ZM46.8552 4.73684L44.849 17.7325C44.7335 18.4676 44.597 18.8555 43.9458 18.8555C43.4941 18.8555 43.3261 18.6615 43.3261 18.2021C43.3261 18.0694 43.3261 17.9265 43.3576 17.7325L45.3637 4.74705C45.4792 4.06307 45.5948 3.65472 46.2145 3.65472C46.7186 3.65472 46.9182 3.84868 46.9182 4.30808C46.9077 4.3387 46.9077 4.46121 46.8552 4.73684Z" fill="#FF0303"/>
<path d="M53.5248 0.142944L50.1217 22.3367H54.8797L56.2346 13.5368H56.5707C57.2744 13.5368 57.5895 13.7001 57.5895 14.2208C57.5895 14.3841 57.5895 14.5474 57.558 14.7108L56.3712 22.3367H61.1291L62.232 15.1293C62.316 14.6393 62.3475 14.1697 62.3475 13.8022C62.3475 12.5669 61.8644 11.9238 60.6145 11.5257C62.8727 10.7906 63.1563 9.48391 63.5029 7.04403L63.839 4.75728C63.9755 3.87933 64.0596 3.19535 64.0596 2.64408C64.0596 0.449206 62.4946 0.163362 59.0285 0.163362L53.5248 0.142944ZM57.7471 3.73641H58.1462C58.8499 3.73641 59.1335 3.81808 59.1335 4.36935C59.1335 4.39998 59.102 4.69603 59.018 5.21667L58.5979 7.97303C58.4298 9.06536 58.3773 9.45329 57.3585 9.45329C57.2219 9.45329 57.0749 9.42266 56.8753 9.42266L57.7471 3.73641Z" fill="#FF0303"/>
</g>
<defs>
<clipPath id="clip0">
<rect width="120" height="22.5" fill="white"/>
</clipPath>
</defs>
</svg>
