<svg width="84" height="50" viewBox="0 0 84 50" fill="none" xmlns="http://www.w3.org/2000/svg">
<path d="M0 0C27.9835 0 55.9671 0 83.9506 0C80.645 10.91 77.3576 21.8265 74.0559 32.7379C72.3305 38.4862 70.5689 44.2243 68.863 49.9791C68.3074 50.0297 67.7517 49.9791 67.1999 49.926C44.799 48.057 22.3995 46.197 0 44.3227C0 29.5489 0 14.7738 0 0ZM17.6043 4.90388C15.936 5.58907 14.4192 6.7315 13.4529 8.27028C12.4504 9.83625 12.0955 11.783 12.4115 13.6094C12.7133 15.494 13.8027 17.2219 15.3259 18.363C17.1924 19.8046 19.5771 20.4393 21.9086 20.5054C24.0601 20.5818 26.2181 20.2476 28.2633 19.5754C27.7323 17.4045 27.1921 15.2336 26.6351 13.0692C25.4111 13.5239 24.0886 13.7143 22.7855 13.6042C22.1586 13.5304 21.5084 13.3451 21.0382 12.9034C20.6988 12.5848 20.5291 12.0201 20.805 11.6095C21.2571 10.8362 22.2117 10.572 23.0485 10.4994C24.2285 10.4645 25.4318 10.5733 26.5535 10.9605C27.1623 8.96324 27.8255 6.9776 28.3747 4.96476C26.6533 4.25236 24.7893 3.92336 22.928 3.98294C21.1159 3.92336 19.2843 4.21091 17.6043 4.90388ZM53.3169 7.59415C52.4128 8.11225 51.8195 9.01635 51.3804 9.93599C51.4063 9.01764 51.396 8.0993 51.3882 7.18096C49.036 7.51384 46.672 7.78973 44.3263 8.16147C44.3172 12.1328 44.3522 16.1053 44.3004 20.0766C46.6643 20.0766 49.0295 20.0779 51.3947 20.0753C51.3973 18.3487 51.3921 16.6222 51.3973 14.8956C51.418 13.9267 51.6227 12.8685 52.383 12.1962C53.6563 13.5187 55.8868 13.7829 57.3854 12.6949C58.9981 11.5201 58.8867 8.74823 57.2442 7.64984C56.1005 6.86621 54.4943 6.89988 53.3169 7.59415ZM30.4265 8.0177C30.2607 8.10189 30.0664 8.15888 29.9459 8.30654C29.7024 9.70284 29.4939 11.1069 29.2555 12.5045C30.306 11.976 31.486 11.7856 32.6414 11.6406C33.1349 11.5551 33.5948 11.7843 34.0455 11.9462C34.7268 12.239 35.4975 12.6314 35.7048 13.4112C34.1634 13.033 32.5041 12.963 30.999 13.5252C30.3021 13.7868 29.6584 14.2207 29.2205 14.8295C28.4537 15.8787 28.4149 17.3747 29.047 18.4964C29.5975 19.4186 30.6169 19.9976 31.6699 20.1297C33.0753 20.3253 34.5002 19.8681 35.6918 19.1414C35.6854 19.4523 35.6815 19.7645 35.6828 20.0766C38.0454 20.0779 40.408 20.0766 42.7719 20.0766C42.7564 17.4822 42.8224 14.8865 42.7227 12.2934C42.6761 11.0473 42.2538 9.78444 41.338 8.90755C40.1515 7.72497 38.4145 7.3597 36.8006 7.26126C34.6556 7.13692 32.4588 7.27551 30.4265 8.0177ZM6.79511 20.6258C6.40782 22.921 6.0011 25.2124 5.62028 27.5089C6.95314 27.5374 8.286 27.5128 9.61756 27.5244C9.61886 31.0501 9.61886 34.5758 9.61756 38.1016C12.1525 38.1857 14.6912 38.121 17.2261 38.143C17.2248 34.5927 17.2209 31.0424 17.2624 27.4933C18.3129 27.4752 19.3634 27.492 20.4151 27.4855C20.8244 25.1955 21.2286 22.9055 21.634 20.6155C16.6886 20.6388 11.7405 20.6258 6.79511 20.6258ZM35.7203 20.5947C35.7242 26.404 35.7151 32.2133 35.7255 38.0225C38.0752 37.9992 40.4248 38.0161 42.7758 38.0148C42.7887 32.2094 42.7331 26.4014 42.8069 20.596C40.4456 20.5934 38.0829 20.596 35.7203 20.5947ZM44.2693 20.5947C44.2706 26.4014 44.2654 32.2081 44.2732 38.0161C46.5904 38.0083 48.9077 38.0212 51.225 38.0096C51.2289 36.2364 51.2315 34.4619 51.2224 32.6886C52.9322 35.4696 54.6316 38.2557 56.3531 41.0301C55.8725 41.9861 55.4619 43.0534 55.6355 44.1427C55.7443 44.9963 56.3544 45.7708 57.173 46.0467C58.2805 46.4482 59.5045 46.276 60.5848 45.8719C59.9631 44.767 59.3582 43.6544 58.7299 42.5534C59.9734 41.4939 61.2571 40.4848 62.4992 39.424C63.4772 40.2983 64.4966 41.126 65.481 41.9938C66.0522 41.0185 66.4693 39.8851 66.3553 38.7414C66.2711 37.7311 65.4888 36.862 64.5225 36.6003C63.4681 36.3011 62.3334 36.4527 61.3102 36.7946C59.2442 34.9294 57.173 33.0656 55.1536 31.1524C57.6859 30.4012 59.7662 28.2485 60.3102 25.6463C58.1302 25.6463 55.9515 25.6463 53.7716 25.6463C53.5811 27.119 52.4737 28.2731 51.2613 29.0295C51.26 26.2175 51.26 23.4068 51.2613 20.596C48.931 20.5934 46.6008 20.5947 44.2693 20.5947ZM23.3386 25.5724C22.77 25.7331 22.1716 25.8496 21.6755 26.1903C21.419 27.6047 21.2234 29.0321 20.9747 30.4491C22.0109 29.896 23.1948 29.716 24.3464 29.5657C24.8463 29.4673 25.3075 29.7445 25.7647 29.9038C26.4149 30.1978 27.1558 30.5903 27.3281 31.3493C25.9305 30.9905 24.4293 30.9115 23.0381 31.3416C22.2026 31.6058 21.3996 32.0825 20.9048 32.822C20.1613 33.9295 20.147 35.4877 20.884 36.6003C21.3659 37.3658 22.2104 37.8386 23.0757 38.0329C24.5432 38.3101 26.0587 37.8827 27.3048 37.1029C27.3035 37.4099 27.3022 37.7156 27.3048 38.0225C29.6324 37.9992 31.9614 38.0264 34.2903 38.0083C34.2942 35.8711 34.2903 33.7339 34.2916 31.5967C34.3046 30.7548 34.2657 29.9077 34.1051 29.0813C33.8279 27.6772 32.8202 26.4545 31.5171 25.8755C30.1726 25.2551 28.6597 25.1333 27.1986 25.1618C25.902 25.1372 24.5938 25.2305 23.3386 25.5724ZM62.8321 41.319C62.2441 43.0041 61.6832 44.6996 61.1133 46.39C62.7777 46.9715 64.4396 47.5674 66.1118 48.1295C66.6481 46.4288 67.262 44.7527 67.8035 43.0546C66.1429 42.4847 64.4875 41.9045 62.8321 41.319Z" fill="#CC0001"/>
</svg>
