<svg width="160" height="20" viewBox="0 0 160 20" fill="none" xmlns="http://www.w3.org/2000/svg">
<path d="M142.744 13.9373C142.124 14.4422 140.712 15.6597 140.13 16.2023C139.587 15.7342 138.465 14.8804 137.767 14.3946V14.3116C137.969 14.2455 138.102 14.0656 138.102 13.6253V8.43133C137.54 8.0386 136.634 7.45452 136.032 7.081L135.426 7.68355V13.8751L136.367 14.5606C136.367 14.5606 135.046 15.6597 134.464 16.2023C133.941 15.7158 133.176 15.1486 132.478 14.6436V14.5814C132.68 14.516 132.812 14.3154 132.812 13.8751V8.43133C132.251 8.0386 131.365 7.49599 130.763 7.12247L130.032 7.68355V13.8751L130.973 14.5606C130.973 14.5606 129.689 15.5874 129.07 16.1815C128.489 15.6766 127.859 15.2162 127.084 14.6436V14.6021C127.302 14.5168 127.439 14.2563 127.439 13.9581V7.70429L126.729 7.10174L125.955 7.80805L125.6 7.45449C126.181 6.98721 127.421 5.91508 128.255 5.14806L130.032 6.68593V7.12247L132.436 5.14806C133.192 5.67222 135.426 7.03949 135.426 7.03949L137.726 5.14806C138.463 5.70911 140.141 6.72286 141.071 7.24701V7.33C140.761 7.40993 140.737 7.78882 140.737 7.99479V13.6253L141.656 14.2693L142.388 13.6253L142.744 13.9373ZM125.641 3.11215C125.021 3.95373 124.516 4.33798 123.509 4.33798C122.83 4.33798 122.463 4.14277 121.92 3.50717L121.167 4.19275L120.832 3.79768L123.446 1.53276C124.125 2.86084 124.941 3.04757 125.6 3.02912L125.641 3.11215Z" fill="#231F20"/>
<path d="M126.478 13.896C125.799 14.457 124.462 15.6083 123.843 16.2024C123.262 15.6975 122.276 14.9666 121.502 14.3948V14.3317C121.719 14.2464 121.836 13.9867 121.836 13.6885V7.70443L121.146 7.12261L120.331 7.82892L119.996 7.49615C120.578 7.02886 121.838 5.91522 122.673 5.1482L124.785 6.95585V7.03963C124.532 7.11341 124.45 7.27018 124.45 7.82892V13.6254L125.369 14.228L126.122 13.5632L126.478 13.896ZM84.0149 13.896C83.3358 14.457 81.9777 15.6083 81.3589 16.2024C80.7773 15.6975 79.7919 14.9666 79.0177 14.3948V14.3317C79.235 14.2464 79.3518 13.9867 79.3518 13.6885V3.98462L78.641 3.38207L77.8676 4.04762L77.5327 3.71484C78.1143 3.24756 79.2296 2.2169 80.0626 1.44988L82.3002 3.25752V3.34055C82.048 3.4151 81.9444 3.5719 81.9444 4.13064V13.6254L82.9066 14.2487L83.68 13.5632L84.0149 13.896ZM59.991 13.9374C59.3715 14.4424 57.9383 15.6598 57.3575 16.2024C56.8145 15.7344 55.7132 14.8805 55.0155 14.3948V14.3117C55.2174 14.2456 55.3713 14.0658 55.3713 13.6254V8.43147C54.809 8.03874 53.9018 7.4754 53.3008 7.10188C53.1786 7.18949 52.6952 7.53227 52.5691 7.64218V13.8752L53.5313 14.5608C53.5313 14.5608 52.2474 15.5876 51.6286 16.1817C51.047 15.6767 50.3965 15.2163 49.6215 14.6438V14.6023C49.8389 14.517 49.9765 14.2564 49.9765 13.9582V7.70443L49.2449 7.10188L48.5132 7.70443L48.2 7.37165C48.7808 6.90437 49.9796 5.91522 50.8134 5.1482L52.5691 6.68607V7.12261L54.9737 5.1482C55.7101 5.70925 57.3884 6.723 58.3189 7.24715V7.33014C58.0087 7.41007 57.9639 7.78896 57.9639 7.99494V13.6254L58.8835 14.2487L59.6361 13.6047L59.991 13.9374ZM156.376 14.6645V11.6517C156.007 11.4834 155.59 11.2498 155.226 11.07L152.298 14.062L152.403 14.0827C152.858 13.8437 153.041 13.5424 153.971 13.5424C154.921 13.5424 155.879 14.2065 156.334 14.6853L156.376 14.6645ZM159.365 5.41873C159.365 6.42862 158.177 7.76667 156.605 7.76667C155.571 7.76667 154.957 7.25714 154.472 6.60309L154.431 6.62383V9.13778L155.853 9.80258L156.501 9.15857C157.172 9.56821 158.561 10.286 159.302 10.5919V10.6542C159.157 10.7134 158.989 10.8748 158.989 11.1737V12.9399C158.989 13.1935 159.167 13.3618 159.302 13.4179V13.5009C157.791 14.1373 155.618 15.2855 154.557 16.2024C154.014 15.6975 153.283 15.2256 152.34 15.2256C151.457 15.2256 151.065 15.5384 151.065 15.8281C151.065 16.0087 151.441 15.9842 151.441 16.2439C151.441 16.3631 151.334 16.4929 151.169 16.4929C150.962 16.4929 150.584 16.2085 150.584 15.8489C150.584 15.1756 151.068 14.5907 152.173 13.4802L154.117 11.5272C153.317 11.1322 152.153 10.6357 151.504 10.3637V10.2806C151.692 10.2284 151.818 10.0386 151.818 9.82336V8.2232C151.818 8.04719 151.737 7.77898 151.504 7.70443V7.62065C153.132 7.06036 155.193 5.93136 156.376 5.12822C156.64 5.41182 157.343 6.02128 158.09 6.02128C158.718 6.02128 158.864 5.71388 158.864 5.50176C158.864 5.38109 158.633 5.31498 158.633 5.12822C158.633 4.96759 158.718 4.89921 158.843 4.89921C159.028 4.89921 159.365 5.07825 159.365 5.41873Z" fill="#231F20"/>
<path d="M148.096 9.4913C147.553 8.76193 146.585 7.56683 145.985 6.70681L145.922 6.72754V10.8209L148.096 9.4913ZM150.522 8.55597L145.922 11.3189V13.2096C146.503 13.4532 147.706 13.9812 148.326 14.3732L149.309 13.3971C149.581 13.1258 149.555 12.6493 150.04 12.6493C150.177 12.6493 150.313 12.853 150.313 13.0021C150.313 13.1612 150.183 13.2373 150.103 13.3141L147.113 16.2024C146.086 15.566 144.001 14.6399 142.974 14.228V14.1449C143.14 14.085 143.329 13.9751 143.329 13.5631V8.30618C143.329 7.87656 143.162 7.7382 142.974 7.70438V7.6206C144.524 7.13487 146.889 5.91518 148.012 5.14816C148.788 6.27026 149.784 7.65829 150.522 8.55597ZM117.571 14.1242V4.58787C117.455 4.59556 117.251 4.60786 117.132 4.60786C116.465 4.60786 115.295 4.35654 114.54 4.15133C112.291 4.5433 109.689 6.38017 109.689 9.82332C109.689 12.7761 111.863 14.6645 114.957 14.6645C116.004 14.6645 116.928 14.4931 117.571 14.1242ZM120.248 2.05238C120.248 3.55876 119.21 4.32119 117.989 4.54561V13.8959C119.559 13.0544 119.787 12.192 119.787 11.7555C119.787 11.6609 119.579 11.5318 119.579 11.3612C119.579 11.2282 119.749 11.1114 119.871 11.1114C120.048 11.1114 120.121 11.2675 120.121 11.548C120.121 13.7361 117.96 16.6804 113.348 16.6804C109.887 16.6804 106.95 14.0581 106.95 10.6749C106.95 5.85061 111.13 4.17362 114.038 4.00531C112.972 3.78089 111.274 3.42349 109.856 3.42349C108.209 3.42349 106.845 4.36958 106.845 5.21116C106.845 5.52857 107.118 5.58853 107.118 5.81295C107.118 5.93669 107.064 6.08348 106.887 6.08348C106.616 6.08348 106.385 5.80986 106.385 5.60543C106.385 3.77241 107.746 1.15932 110.609 1.15932C113.511 1.15932 115.667 2.17688 117.926 2.17688C119.42 2.17688 119.845 1.66812 119.787 0.826549L120.121 0.930311C120.179 1.06174 120.248 1.49056 120.248 2.05238ZM97.8131 14.6645V11.6517C97.445 11.4834 97.0281 11.2498 96.663 11.0699L93.7363 14.0619L93.8407 14.0827C94.2955 13.8437 94.4788 13.5424 95.4093 13.5424C96.359 13.5424 97.3173 14.2064 97.7714 14.6852L97.8131 14.6645ZM100.803 5.41868C100.803 6.42857 99.6152 7.76663 98.0436 7.76663C97.0087 7.76663 96.3954 7.25709 95.9105 6.60305L95.8687 6.62378V9.13774L97.291 9.80254L97.9384 9.15852C98.6098 9.56816 99.9996 10.286 100.741 10.5919V10.6541C100.595 10.7133 100.427 10.8747 100.427 11.1737V12.9398C100.427 13.1935 100.604 13.3618 100.741 13.4179V13.5009C99.2285 14.1372 97.0559 15.2855 95.994 16.2024C95.4518 15.6974 94.7209 15.2255 93.7781 15.2255C92.894 15.2255 92.5027 15.5383 92.5027 15.8281C92.5027 16.0087 92.8793 15.9841 92.8793 16.2439C92.8793 16.363 92.7726 16.4929 92.6071 16.4929C92.4006 16.4929 92.0216 16.2085 92.0216 15.8488C92.0216 15.1756 92.505 14.5907 93.611 13.4801L95.5555 11.5272C94.7549 11.1322 93.5909 10.6357 92.942 10.3636V10.2806C93.1307 10.2283 93.2552 10.0385 93.2552 9.82332V8.22315C93.2552 8.04715 93.174 7.77893 92.942 7.70438V7.6206C94.5701 7.06032 96.6313 5.93132 97.8131 5.12817C98.0784 5.41177 98.7807 6.02123 99.5278 6.02123C100.157 6.02123 100.301 5.71383 100.301 5.50171C100.301 5.38105 100.072 5.31493 100.072 5.12817C100.072 4.96754 100.156 4.89916 100.28 4.89916C100.466 4.89916 100.803 5.07821 100.803 5.41868Z" fill="#231F20"/>
<path d="M89.5968 9.49127C89.0539 8.76191 88.0855 7.56681 87.4853 6.70679L87.4219 6.72752V10.8209L89.5968 9.49127ZM92.0216 8.55595L87.4219 11.3189V13.2096C88.0035 13.4532 89.2062 13.9812 89.8265 14.3732L90.8096 13.3971C91.0826 13.1258 91.0571 12.6493 91.5413 12.6493C91.6766 12.6493 91.8127 12.853 91.8127 13.0021C91.8127 13.1611 91.6836 13.2372 91.6039 13.3141L88.6138 16.2023C87.5867 15.566 85.5014 14.6399 84.4743 14.2279V14.1449C84.6398 14.085 84.8293 13.975 84.8293 13.5631V8.30616C84.8293 7.87653 84.663 7.73818 84.4743 7.70436V7.62058C86.0251 7.13485 88.3887 5.91516 89.5133 5.14813C90.2883 6.27023 91.2853 7.65827 92.0216 8.55595ZM75.944 9.49127C75.4011 8.76191 74.4328 7.56681 73.8326 6.70679L73.7699 6.72752V10.8209L75.944 9.49127ZM78.3696 8.55595L73.7699 11.3189V13.2096C74.3515 13.4532 75.5535 13.9812 76.1738 14.3732L77.156 13.3971C77.4291 13.1258 77.4035 12.6493 77.8885 12.6493C78.0238 12.6493 78.1599 12.853 78.1599 13.0021C78.1599 13.1611 78.0308 13.2372 77.9511 13.3141L74.961 16.2023C73.9339 15.566 71.8487 14.6399 70.8215 14.2279V14.1449C70.9878 14.085 71.1773 13.975 71.1773 13.5631V8.30616C71.1773 7.87653 71.0103 7.73818 70.8215 7.70436V7.62058C72.3723 7.13485 74.7359 5.91516 75.8605 5.14813C76.6355 6.27023 77.6325 7.65827 78.3696 8.55595ZM66.2428 14.3947V8.51443C65.4871 8.10325 64.2326 7.27395 63.3996 6.58224L63.3578 6.60302V13.1688C64.1135 13.5047 65.3672 14.211 65.9295 14.623L66.2428 14.3947ZM69.881 15.3708C69.8184 17.7456 68.5832 19.3811 66.2846 19.3811C64.4863 19.3811 63.1722 18.488 61.5387 18.488C60.5874 18.488 60.0723 18.7701 59.8031 19.0898L59.6778 19.0276C59.7745 17.3076 61.0337 16.3476 62.6471 16.3476C64.4244 16.3476 65.7199 17.449 67.6017 17.449C68.8036 17.449 69.4301 16.8395 69.5461 16.2231L69.5253 16.1816C69.2731 16.3307 68.9436 16.5136 68.4594 16.5136C67.4896 16.5136 66.4385 15.8673 66.2637 14.7267C65.8011 15.038 64.7748 15.8173 64.3192 16.2023C63.1838 15.4937 61.3422 14.6107 60.4512 14.2279V14.1449C60.6369 14.0865 60.7653 13.8644 60.7653 13.6461V8.28538C60.7653 7.96719 60.6578 7.74432 60.4304 7.70436V7.62058C62.0778 7.04108 64.1792 5.96664 65.3232 5.10662C66.3139 5.86365 68.13 6.9304 69.1911 7.51682V7.62058C68.9583 7.71434 68.8353 7.86423 68.8353 8.36841V14.1449C68.8353 14.8866 68.9065 15.3915 69.4626 15.3915C69.5508 15.3915 69.6567 15.3185 69.7341 15.2255L69.881 15.3708ZM43.3072 10.0516L41.321 4.15131L39.1259 10.0516H43.3072ZM49.224 13.8337L46.5896 16.2023C45.8533 15.6974 45.2199 15.2878 44.2902 14.7267V14.623C44.5006 14.5492 44.6011 14.3447 44.6034 14.1034C44.6042 13.9973 44.5772 13.8828 44.5408 13.7714L43.7882 11.4857H38.5822L37.8923 13.3971C38.9689 13.3971 39.5212 13.5162 40.0456 13.7291L40.5684 12.8153L40.9868 13.0228L39.1886 16.2231C38.4832 15.8357 37.6858 15.5367 36.784 15.5367C35.7213 15.5367 34.9192 15.8042 34.5263 16.1608C34.4474 16.2323 34.3337 16.2131 34.3801 16.0571C34.8063 14.6168 35.7653 13.5185 37.4112 13.4179L41.0495 3.69399C40.6728 2.71715 40.3085 2.32288 39.3974 2.32288C38.5443 2.32288 37.7043 2.70488 37.7043 3.71477C37.7043 4.18206 38.1847 4.14209 38.1847 4.48333C38.1847 4.60323 38.0779 4.73313 37.9132 4.73313C37.603 4.73313 37.2859 4.33423 37.2859 3.54876C37.2859 1.77185 38.7864 0.722761 40.3178 0.722761C41.7131 0.722761 42.2746 1.24231 42.7008 1.80336C42.8369 1.27997 43.3536 0.93255 43.7674 0.867992L43.8927 1.07552C43.6343 1.38525 43.4951 1.65962 43.4951 2.05236C43.4951 2.25679 43.5833 2.67875 43.6421 2.84245L47.5518 13.7714L48.2208 14.1656L48.9316 13.5216L49.224 13.8337ZM27.3132 14.6645V11.6517C26.945 11.4834 26.5274 11.2498 26.1631 11.0699L23.2364 14.0619L23.3408 14.0827C23.7956 13.8436 23.9781 13.5424 24.9086 13.5424C25.8583 13.5424 26.8166 14.2064 27.2714 14.6852L27.3132 14.6645ZM30.3025 5.41866C30.3025 6.42855 29.1145 7.76661 27.5429 7.76661C26.5088 7.76661 25.8947 7.25707 25.4105 6.60302L25.3688 6.62376V9.13772L26.7903 9.80252L27.4385 9.1585C28.1091 9.56814 29.4989 10.286 30.2399 10.5919V10.6541C30.0953 10.7133 29.9266 10.8747 29.9266 11.1737V12.9398C29.9266 13.1934 30.1045 13.3618 30.2399 13.4179V13.5008C28.7286 14.1372 26.556 15.2855 25.494 16.2023C24.9511 15.6974 24.221 15.2255 23.2781 15.2255C22.3941 15.2255 22.0027 15.5383 22.0027 15.8281C22.0027 16.0087 22.3786 15.9841 22.3786 16.2439C22.3786 16.363 22.2719 16.4929 22.1071 16.4929C21.8999 16.4929 21.5217 16.2085 21.5217 15.8488C21.5217 15.1755 22.0051 14.5907 23.1103 13.4801L25.0547 11.5272C24.255 11.1321 23.091 10.6357 22.4413 10.3636V10.2806C22.63 10.2283 22.7553 10.0385 22.7553 9.8233V8.22313C22.7553 8.04713 22.6741 7.77891 22.4413 7.70436V7.62058C24.0694 7.0603 26.1306 5.9313 27.3132 5.12815C27.5777 5.41175 28.2807 6.02121 29.0271 6.02121C29.6559 6.02121 29.8006 5.71381 29.8006 5.50169C29.8006 5.38102 29.5708 5.31491 29.5708 5.12815C29.5708 4.96752 29.6559 4.89914 29.7797 4.89914C29.9653 4.89914 30.3025 5.07819 30.3025 5.41866ZM18.1765 14.6852V8.51443C17.2847 8.04715 15.9738 7.10563 15.3535 6.58224L15.3117 6.60302V12.8983C16.1648 13.3471 17.4371 14.1264 18.1348 14.7059L18.1765 14.6852ZM21.1241 13.5008C19.8278 14.0119 17.3172 15.2855 16.2321 16.2023C15.0882 15.3977 13.4253 14.3371 12.3641 13.7499V13.6884C12.6356 13.5946 12.6982 13.4033 12.6982 13.0851V8.36841C12.6982 7.93494 12.5969 7.77891 12.3641 7.70436V7.62058C14.1469 6.98498 15.8222 6.08117 17.2561 5.12815C18.2446 5.8383 19.981 6.88355 21.1241 7.5376V7.62058C20.9176 7.70128 20.7691 7.90571 20.7691 8.22313V12.8983C20.7691 13.2349 20.9114 13.3618 21.1241 13.4179V13.5008ZM7.28337 12.8568V4.1098C6.01183 3.9753 5.45265 3.16142 5.02571 2.67569L3.79207 3.63174C3.79826 4.96212 4.17648 6.04043 4.64905 7.10181C5.08063 8.07173 5.56944 9.32755 5.56944 10.1968C5.56944 11.6302 4.74572 12.5348 2.78814 14.3117L2.85079 14.3732C4.01404 13.5324 5.72102 12.8821 7.28337 12.8568ZM12.071 12.836L10.1691 16.2646C9.1729 15.5944 7.57341 15.184 6.21679 15.184C3.54224 15.184 1.70996 15.6428 0.760175 16.2231L0.634888 16.0986C1.48335 15.3815 2.91421 14.231 2.91421 11.6102C2.91421 10.5058 2.45325 9.25453 2.11913 8.43141C1.73318 7.47839 1.42922 6.9773 1.42922 5.64692C1.42922 3.33047 2.72626 2.0224 4.75345 1.0348L4.9004 1.22155C4.20044 1.7826 3.87483 2.50582 3.77118 3.23672L7.0119 0.618998C7.84181 1.7434 8.62376 2.17685 9.64625 2.17685C10.4847 2.17685 10.7329 1.81797 10.7329 1.53284C10.7329 1.32686 10.4406 1.29841 10.4406 1.09705C10.4406 0.905678 10.5759 0.847258 10.6912 0.847258C10.9487 0.847258 11.1931 1.16773 11.1931 1.40829C11.1931 2.98538 9.71973 4.15131 8.26643 4.15131C8.01429 4.15131 7.84102 4.17821 7.68092 4.15131V12.8568C8.94086 12.8568 10.1389 13.1996 11.0887 13.6677L11.6742 12.67L12.071 12.836ZM116.714 5.41866C116.714 5.54931 116.561 5.64692 116.463 5.64692C116.296 5.64692 116.154 5.33568 115.69 5.33568C115.005 5.33568 114.434 5.90055 114.434 6.56151C114.434 8.30076 116.212 9.00399 116.212 10.9869C116.212 12.65 114.526 13.6139 112.783 13.8337L112.448 13.6046C113.403 13.4847 113.87 13.1673 113.87 12.0467C113.87 10.5319 112.239 9.29911 112.239 7.51682C112.239 6.07576 113.645 4.96139 115.564 4.96139C115.937 4.96139 116.302 5.07203 116.504 5.16887C116.621 5.22497 116.714 5.30645 116.714 5.41866Z" fill="#231F20"/>
</svg>
